<?xml version="1.0" encoding="UTF-8"?>
<svg id="Layer_1" xmlns="http://www.w3.org/2000/svg" version="1.1" viewBox="0 0 512 512">
  <!-- Generator: Adobe Illustrator 29.4.0, SVG Export Plug-In . SVG Version: 2.1.0 Build 152)  -->
  <defs>
    <style>
      .st0, .st1, .st2 {
        stroke: #000;
        stroke-miterlimit: 15.17;
      }

      .st0, .st1, .st2, .st3 {
        fill: none;
      }

      .st0, .st1, .st3 {
        stroke-width: 15.17px;
      }

      .st1, .st3 {
        display: none;
      }

      .st2 {
        stroke-width: 22.76px;
      }

      .st3 {
        stroke: #f40000;
        stroke-miterlimit: 10;
      }
    </style>
  </defs>
  <circle class="st2" cx="256.76" cy="271.17" r="108.13"/>
  <path class="st1" d="M196.84,45.13h120.23l11.64,43.24,3.58,1.48c73.58,30.45,121.36,102.02,121.36,181.67,0,8.57-.57,17.18-1.69,25.68l-.5,3.83,31.74,31.74-59.92,103.92-43.24-11.61-3.07,2.36c-34.36,26.36-76.61,40.58-119.85,40.58s-85.33-14.3-119.85-40.58l-3.07-2.36-43.24,11.61-59.92-103.92,31.74-31.74-.5-3.83c-1.12-8.53-1.69-17.1-1.69-25.68,0-79.64,47.79-151.32,121.36-181.67l3.58-1.48,11.29-43.24h.02Z"/>
  <path class="st3" d="M196.84,45.13h120.23l11.64,43.24,3.58,1.48c73.58,30.45,121.36,102.02,121.36,181.67,0,8.57-.57,17.18-1.69,25.68l-.5,3.83,31.74,31.74-59.92,103.92-43.24-11.61-3.07,2.36c-34.36,26.36-76.61,40.58-119.85,40.58s-85.33-14.3-119.85-40.58l-3.07-2.36-43.24,11.61-59.92-103.92,31.74-31.74-.5-3.83c-1.12-8.53-1.69-17.1-1.69-25.68,0-79.64,47.79-151.32,121.36-181.67l3.58-1.48,11.29-43.24h.02Z"/>
  <polygon points="287.41 116.05 268.14 116.05 268.14 207.08 245.42 207.08 245.42 116.05 226.1 116.05 256.76 62.96 287.41 116.05"/>
  <polygon points="375.79 375.24 385.43 358.55 306.6 313.04 317.96 293.36 396.79 338.88 406.45 322.15 437.1 375.24 375.79 375.24"/>
  <polygon points="137.74 375.24 128.1 358.55 206.94 313.04 195.58 293.36 116.74 338.88 107.08 322.15 76.44 375.24 137.74 375.24"/>
  <path class="st0" d="M424.39,108.51l-52.31,3.68c-12.13-8.87-25.3-16.4-39.31-22.33l-21.81-44.76h-109.93l-21.81,44.76c-14.01,5.94-27.18,13.47-39.31,22.33l-50.78-3.58-54.23,93.93,26.44,39.16c-1.44,9.61-2.2,19.45-2.2,29.46,0,7.94.48,15.76,1.4,23.45l-28.38,42.03,52.09,90.23,47.13-3.32c15.59,12.76,33.17,23.18,52.2,30.71l21.71,44.56h101.38l21.71-44.56c19.04-7.53,36.62-17.95,52.2-30.71l48.66,3.43,51.42-89.07-29.23-43.3c.91-7.69,1.4-15.52,1.4-23.45,0-10.01-.75-19.85-2.2-29.46l27.3-40.43-53.56-92.77Z"/>
</svg>